<svg width="435" height="348" viewBox="0 0 435 348" fill="none" xmlns="http://www.w3.org/2000/svg">
<path d="M300.558 252.419C300.558 252.419 287.554 245.94 281.806 234.108C276.058 222.277 278.719 210.41 278.719 210.41C278.719 210.41 279.362 217.843 285.695 221.79C292.028 225.736 293.1 218.153 287.007 211.652C280.915 205.151 277.998 199.412 279.536 194.554C281.075 189.697 287.682 180.83 287.682 180.83C287.682 180.83 288.318 192.181 292.667 195.837C297.016 199.494 304.859 195.589 300.863 192.017C296.866 188.446 292.863 179.459 292.82 174.97C292.777 170.48 304.636 158.393 304.636 158.393C304.636 158.393 303.444 167.253 306.346 171.495C309.248 175.738 316.159 175.715 314.535 171.593C312.91 167.47 308.963 155.137 311.207 150.45C313.452 145.762 317.243 141.632 317.243 141.632C317.243 141.632 318.804 153.019 321.628 153.696C324.451 154.373 323.61 144.652 322.777 140.346C321.944 136.04 335.547 126.797 336.288 126.043C337.029 125.287 343.722 134.732 344.083 140.232C344.444 145.732 333.855 152.524 334.809 155.553C335.763 158.581 346.866 145.753 346.866 145.753C346.866 145.753 353.926 156.78 352.487 162.78C351.048 168.781 335.721 172.757 334.79 176.64C333.858 180.524 345.973 176.71 351.613 172.65C351.613 172.65 358.067 184.65 353.987 190.765C349.907 196.879 334.743 194.734 331.524 198.815C328.305 202.896 332.146 208.67 340.624 206.785C349.103 204.899 353.889 198.954 353.889 198.954C353.889 198.954 354.031 213.921 347.346 219.223C340.662 224.525 329.612 215.341 326.09 219.909C322.568 224.477 334.097 228.55 344.057 225.153C344.057 225.153 343.662 229.91 333.695 237.225C323.727 244.539 300.558 252.419 300.558 252.419Z" fill="#18203D"/>
<path d="M326.698 159.019C326.698 159.019 306.65 217.327 293.001 269.504L297.356 270.549C297.356 270.549 324.193 179.768 326.698 159.019Z" fill="#18203D"/>
<path d="M315.17 258.205C315.17 258.205 308.128 246.937 309.301 234.966C310.475 222.994 318.221 215.012 318.221 215.012C318.221 215.012 315.169 221.115 318.221 227.219C321.272 233.322 325.732 227.923 324.09 219.942C322.447 211.96 322.916 206.092 326.437 203.04C329.957 199.988 339.347 196.233 339.347 196.233C339.347 196.233 334.418 205.388 336.061 210.317C337.705 215.247 345.685 215.951 344.277 211.256C342.868 206.561 344.042 197.641 346.155 194.12C348.267 190.599 363.291 186.843 363.291 186.843C363.291 186.843 358.126 193.181 358.361 197.875C358.596 202.57 363.995 205.857 364.699 201.866C365.403 197.875 368.22 186.373 372.211 183.791C376.201 181.208 381.131 179.8 381.131 179.8C381.131 179.8 376.905 189.424 378.784 191.302C380.662 193.181 384.652 185.199 386.061 181.443C387.469 177.687 402.492 176.982 403.432 176.748C404.371 176.514 405.075 187.076 402.728 191.537C400.381 195.997 388.878 196.232 388.173 199.048C387.469 201.865 402.258 197.17 402.258 197.17C402.258 197.17 402.492 209.142 398.502 213.133C394.511 217.124 380.662 212.899 378.079 215.48C375.497 218.062 386.765 220.879 393.103 220.409C393.103 220.409 392.398 232.85 386.295 235.668C380.192 238.486 369.394 229.565 364.933 231.208C360.473 232.85 360.708 239.189 368.22 241.771C375.731 244.354 382.304 242.006 382.304 242.006C382.304 242.006 375.263 253.742 367.516 254.682C359.77 255.621 355.544 243.18 350.614 245.058C345.685 246.936 352.727 255.622 362.117 257.734C362.117 257.734 359.534 261.255 348.267 262.195C337 263.134 315.17 258.205 315.17 258.205Z" fill="#6DA1A4"/>
<path d="M380.193 197.877C380.193 197.877 336.693 233.756 301.111 267.914L304.007 270.81C304.007 270.81 368.324 212.857 380.193 197.877Z" fill="#528E8D"/>
<path d="M320.325 279.398C320.325 279.398 317.686 266.375 322.989 255.578C328.291 244.78 338.346 240.026 338.346 240.026C338.346 240.026 333.346 244.669 334.061 251.455C334.776 258.241 340.847 254.752 342.111 246.701C343.374 238.651 345.874 233.321 350.243 231.699C354.611 230.078 364.722 229.858 364.722 229.858C364.722 229.858 356.892 236.699 356.699 241.892C356.508 247.085 363.734 250.546 364.063 245.655C364.392 240.765 368.623 232.824 371.837 230.269C375.052 227.714 390.437 229.471 390.437 229.471C390.437 229.471 383.377 233.592 381.948 238.071C380.52 242.55 384.421 247.522 386.482 244.033C388.543 240.543 395.218 230.762 399.862 229.745C404.505 228.728 409.615 229.139 409.615 229.139C409.615 229.139 402.28 236.667 403.379 239.085C404.478 241.503 411.017 235.431 413.654 232.408C416.292 229.386 430.606 234.001 431.568 234.11C432.53 234.22 429.48 244.358 425.716 247.711C421.952 251.063 411.1 247.245 409.451 249.635C407.803 252.026 423.299 252.821 423.299 252.821C423.299 252.821 419.316 264.113 414.178 266.449C409.041 268.784 397.556 259.966 394.231 261.477C390.907 262.988 400.468 269.581 406.568 271.366C406.568 271.366 401.541 282.769 394.837 283.264C388.133 283.759 381.154 271.615 376.4 271.588C371.647 271.561 369.642 277.578 375.769 282.633C381.896 287.688 388.874 287.798 388.874 287.798C388.874 287.798 378.159 296.316 370.577 294.476C362.993 292.635 363.405 279.503 358.13 279.531C352.855 279.559 356.4 290.163 364.45 295.438C364.45 295.438 360.797 297.829 349.916 294.753C339.036 291.678 320.325 279.398 320.325 279.398Z" fill="#18203D"/>
<path d="M402.389 245.737C402.389 245.737 349.061 264.061 303.754 283.553L305.449 287.282C305.449 287.282 386.016 255.597 402.389 245.737Z" fill="#18203D"/>
<path d="M321.37 316.374C321.37 316.374 319.395 303.235 325.236 292.719C331.078 282.204 341.362 277.965 341.362 277.965C341.362 277.965 336.133 282.349 336.503 289.164C336.873 295.977 343.114 292.8 344.783 284.824C346.453 276.849 349.219 271.652 353.664 270.254C358.109 268.857 368.218 269.148 368.218 269.148C368.218 269.148 360.051 275.585 359.596 280.761C359.142 285.937 366.183 289.76 366.759 284.893C367.335 280.026 371.964 272.31 375.303 269.92C378.643 267.531 393.92 270.065 393.92 270.065C393.92 270.065 386.659 273.824 385.006 278.224C383.353 282.625 386.997 287.788 389.232 284.408C391.467 281.027 398.63 271.597 403.318 270.816C408.007 270.035 413.089 270.706 413.089 270.706C413.089 270.706 405.382 277.853 406.357 280.323C407.333 282.793 414.17 277.06 416.958 274.175C419.744 271.291 433.807 276.625 434.762 276.783C435.717 276.942 432.158 286.912 428.23 290.069C424.301 293.226 413.656 288.863 411.888 291.167C410.121 293.47 425.556 295.05 425.556 295.05C425.556 295.05 421.006 306.126 415.757 308.198C410.508 310.271 399.484 300.881 396.087 302.223C392.69 303.563 401.905 310.633 407.907 312.725C407.907 312.725 402.308 323.859 395.588 324.013C388.868 324.168 382.513 311.686 377.767 311.418C373.022 311.149 370.714 317.058 376.578 322.416C382.441 327.775 389.405 328.238 389.405 328.238C389.405 328.238 378.273 336.202 370.793 333.98C363.314 331.758 364.389 318.662 359.12 318.423C353.849 318.183 356.853 328.954 364.625 334.63C364.625 334.63 360.855 336.832 350.144 333.209C339.434 329.587 321.37 316.374 321.37 316.374Z" fill="#6DA1A4"/>
<path d="M405.034 286.914C405.034 286.914 350.845 302.512 304.609 319.684L306.114 323.494C306.114 323.494 388.182 295.932 405.034 286.914Z" fill="#528E8D"/>
<path d="M114.881 326.12C114.87 326.128 114.858 326.137 114.845 326.144C114.349 326.459 113.69 326.312 113.374 325.815C72.4771 261.457 57.665 196.879 57.5207 196.234C57.3919 195.658 57.7532 195.09 58.3266 194.96C58.901 194.831 59.4715 195.191 59.5994 195.766C59.7437 196.408 74.4841 260.641 115.173 324.672C115.482 325.158 115.349 325.796 114.881 326.12Z" fill="#18203D"/>
<path d="M59.05 198.043C59.05 198.043 38.8989 179.85 48.9183 156.445C48.9183 156.445 68.5909 171.892 59.05 198.043Z" fill="#18203D"/>
<path d="M60.9302 205.24C60.9302 205.24 62.0392 178.113 86.4426 170.857C86.4426 170.857 87.139 195.86 60.9302 205.24Z" fill="#18203D"/>
<path d="M67.2754 225.735C67.2754 225.735 68.3845 198.608 92.7878 191.351C92.7878 191.351 93.4842 216.355 67.2754 225.735Z" fill="#18203D"/>
<path d="M74.9014 245.968C74.9014 245.968 76.0104 218.841 100.414 211.584C100.414 211.584 101.11 236.588 74.9014 245.968Z" fill="#18203D"/>
<path d="M83.2983 266.713C83.2983 266.713 84.4074 239.586 108.811 232.329C108.811 232.329 109.507 257.333 83.2983 266.713Z" fill="#18203D"/>
<path d="M95.8735 293.623C95.8735 293.623 96.9826 266.496 121.386 259.239C121.386 259.239 122.082 284.243 95.8735 293.623Z" fill="#18203D"/>
<path d="M60.869 205.26C60.869 205.26 43.6189 184.296 19.7793 193.23C19.7793 193.23 34.3076 213.591 60.869 205.26Z" fill="#18203D"/>
<path d="M67.3053 225.276C67.3053 225.276 48.0928 206.093 25.2383 217.311C25.2383 217.311 41.6844 236.157 67.3053 225.276Z" fill="#18203D"/>
<path d="M74.8269 246.298C74.8269 246.298 56.1888 226.556 33.0127 237.095C33.0127 237.095 48.8951 256.419 74.8269 246.298Z" fill="#18203D"/>
<path d="M83.3573 266.723C83.3573 266.723 62.873 248.905 40.8428 261.665C40.8428 261.665 58.5433 279.338 83.3573 266.723Z" fill="#18203D"/>
<path d="M96.5823 293.595C96.5823 293.595 74.8194 277.363 53.8081 291.739C53.8081 291.739 72.7843 308.036 96.5823 293.595Z" fill="#18203D"/>
<path d="M99.0268 321.624C99.0132 321.624 98.9987 321.624 98.9842 321.623C98.3962 321.6 97.938 321.104 97.9613 320.516C100.985 244.323 125.578 182.801 125.826 182.189C126.047 181.642 126.669 181.381 127.215 181.601C127.76 181.821 128.023 182.443 127.802 182.989C127.555 183.599 103.1 244.796 100.092 320.602C100.068 321.173 99.5963 321.624 99.0268 321.624Z" fill="#6DA1A4"/>
<path d="M126.053 184.545C126.053 184.545 119.846 158.115 141.41 144.579C141.41 144.579 148.787 168.48 126.053 184.545Z" fill="#6DA1A4"/>
<path d="M123.502 191.533C123.502 191.533 139.859 169.864 164.052 177.793C164.052 177.793 150.388 198.744 123.502 191.533Z" fill="#6DA1A4"/>
<path d="M117.048 211.994C117.048 211.994 133.405 190.325 157.599 198.254C157.599 198.254 143.935 219.205 117.048 211.994Z" fill="#6DA1A4"/>
<path d="M111.797 232.969C111.797 232.969 128.154 211.3 152.347 219.23C152.347 219.23 138.683 240.181 111.797 232.969Z" fill="#6DA1A4"/>
<path d="M106.888 254.804C106.888 254.804 123.245 233.135 147.438 241.064C147.438 241.064 133.775 262.015 106.888 254.804Z" fill="#6DA1A4"/>
<path d="M101.904 284.086C101.904 284.086 118.261 262.417 142.454 270.346C142.454 270.346 128.791 291.298 101.904 284.086Z" fill="#6DA1A4"/>
<path d="M123.439 191.515C123.439 191.515 121.195 164.458 96.5093 158.229C96.5093 158.229 96.8599 183.24 123.439 191.515Z" fill="#6DA1A4"/>
<path d="M117.335 211.634C117.335 211.634 112.462 184.925 87.2871 181.134C87.2871 181.134 90.0758 205.991 117.335 211.634Z" fill="#6DA1A4"/>
<path d="M111.548 233.198C111.548 233.198 107.466 206.358 82.4141 201.824C82.4141 201.824 84.4675 226.753 111.548 233.198Z" fill="#6DA1A4"/>
<path d="M106.931 254.846C106.931 254.846 100.237 228.534 74.8599 226.481C74.8599 226.481 79.3494 251.087 106.931 254.846Z" fill="#6DA1A4"/>
<path d="M102.502 284.467C102.502 284.467 93.8532 258.732 68.395 258.586C68.395 258.586 74.7162 282.787 102.502 284.467Z" fill="#6DA1A4"/>
<path d="M124.471 323.66C124.462 323.671 124.452 323.681 124.442 323.691C124.037 324.118 123.362 324.135 122.935 323.729C67.6618 271.2 37.6415 212.135 37.3451 211.544C37.0806 211.018 37.2937 210.378 37.8187 210.113C38.3447 209.848 38.9849 210.061 39.2494 210.586C39.5448 211.174 69.4111 269.921 124.404 322.184C124.82 322.58 124.847 323.232 124.471 323.66Z" fill="#6DA1A4"/>
<path d="M39.2668 212.93C39.2668 212.93 15.3071 200.161 19.3559 175.026C19.3559 175.026 42.1862 185.247 39.2668 212.93Z" fill="#6DA1A4"/>
<path d="M42.8353 219.456C42.8353 219.456 37.3374 192.87 59.2553 179.916C59.2553 179.916 65.9901 204.005 42.8353 219.456Z" fill="#6DA1A4"/>
<path d="M53.9578 237.803C53.9578 237.803 48.46 211.215 70.3778 198.262C70.3778 198.262 77.1126 222.351 53.9578 237.803Z" fill="#6DA1A4"/>
<path d="M66.2604 255.586C66.2604 255.586 60.7635 228.999 82.6804 216.045C82.6804 216.045 89.4152 240.134 66.2604 255.586Z" fill="#6DA1A4"/>
<path d="M79.4334 273.677C79.4334 273.677 73.9356 247.09 95.8534 234.136C95.8534 234.136 102.588 258.225 79.4334 273.677Z" fill="#6DA1A4"/>
<path d="M98.1556 296.737C98.1556 296.737 92.6577 270.151 114.576 257.197C114.576 257.197 121.309 281.286 98.1556 296.737Z" fill="#6DA1A4"/>
<path d="M42.7809 219.491C42.7809 219.491 20.9648 203.332 0 217.777C0 217.777 19.0304 234.011 42.7809 219.491Z" fill="#6DA1A4"/>
<path d="M53.8769 237.351C53.8769 237.351 30.5885 223.396 11.1328 239.817C11.1328 239.817 31.6559 254.116 53.8769 237.351Z" fill="#6DA1A4"/>
<path d="M66.2671 255.924C66.2671 255.924 43.401 241.288 23.4697 257.128C23.4697 257.128 43.5608 272.027 66.2671 255.924Z" fill="#6DA1A4"/>
<path d="M79.4924 273.672C79.4924 273.672 55.3012 261.349 37.0186 279.067C37.0186 279.067 58.4754 291.924 79.4924 273.672Z" fill="#6DA1A4"/>
<path d="M98.8361 296.539C98.8361 296.539 73.7886 286.064 56.8872 305.104C56.8872 305.104 79.2468 316.316 98.8361 296.539Z" fill="#6DA1A4"/>
<path d="M45.5348 76.7418C46.5138 79.679 47.7361 82.11 50.6227 83.0893C51.3379 83.3359 52.0896 83.2284 52.8154 83.0005L53.9946 82.6296C55.2533 82.2337 56.6022 82.9032 57.0079 84.1194L59.884 92.7493C60.2889 93.9654 59.6003 95.2756 58.3415 95.6716L54.4785 96.8858C53.8455 97.0848 53.1554 97.023 52.5715 96.7062C49.6636 95.1121 40.7875 89.5411 37.3765 79.3075C33.9655 69.0739 37.7967 59.5073 39.1914 56.5598C39.4731 55.9707 39.9954 55.5278 40.6277 55.3288L44.4908 54.1139C45.7495 53.718 47.0984 54.3876 47.5041 55.6037L50.3801 64.2336C50.7851 65.4498 50.0964 66.76 48.8377 67.1559L47.6592 67.5268C46.9334 67.7547 46.2592 68.0952 45.8291 68.7024C44.0792 71.1386 44.5557 73.8047 45.5348 76.7418Z" fill="#52908A"/>
<path d="M37 95.42L30.6479 104C30.6479 104 16.5483 95.1665 16.0163 78.1781C15.6139 65.0546 22.77 58.0616 26.0349 55.5654L23.7873 52H36.4439L30.944 63.3181L28.7558 59.856C26.6859 63.1569 23.4925 69.7475 24.8406 77.4996C26.7808 88.6454 37 95.42 37 95.42Z" fill="#CA404E"/>
<path d="M59 60.58L65.0496 52C65.0496 52 78.4778 60.8335 78.9845 77.8219C79.3677 90.9454 72.5524 97.9384 69.4429 100.435L71.5836 104H59.5296L64.7682 92.6819L66.8522 96.144C68.8236 92.8431 71.8655 86.2525 70.581 78.5004C68.7332 67.3546 59 60.58 59 60.58Z" fill="#DB9431"/>
<path d="M161.695 0.666808L119.813 6.47115C117.153 6.8398 115.298 9.28536 115.662 11.9178L118.585 33.0031C118.951 35.6446 121.4 37.4843 124.06 37.1157L148.788 33.6887L161.353 53.2113L158.462 32.3481L165.942 31.3114C168.602 30.9428 170.458 28.5063 170.092 25.8648L167.17 4.77949C166.806 2.14771 164.355 0.298159 161.695 0.666808Z" fill="#DB9431"/>
<path d="M130.9 23.0604C132.791 22.7983 134.112 21.0525 133.85 19.1612C133.588 17.2698 131.842 15.9491 129.95 16.2112C128.059 16.4733 126.738 18.219 127 20.1104C127.263 22.0018 129.008 23.3225 130.9 23.0604Z" fill="white"/>
<path d="M142.935 21.3924C144.827 21.1303 146.147 19.3846 145.885 17.4932C145.623 15.6019 143.877 14.2811 141.986 14.5432C140.095 14.8053 138.774 16.5511 139.036 18.4424C139.298 20.3338 141.044 21.6545 142.935 21.3924Z" fill="white"/>
<path d="M154.97 19.7245C156.861 19.4623 158.182 17.7166 157.92 15.8253C157.658 13.9339 155.912 12.6131 154.021 12.8752C152.129 13.1374 150.809 14.8831 151.071 16.7745C151.333 18.6658 153.079 19.9866 154.97 19.7245Z" fill="white"/>
<path d="M304.034 5H337.19C339.295 5 341 6.79265 341 8.99015V26.5925C341 28.7975 339.296 30.5827 337.19 30.5827H317.614L299 48L309.956 30.5833H304.034C301.928 30.5833 300.224 28.7987 300.224 26.5931V8.99077C300.224 6.79327 301.929 5 304.034 5Z" fill="white"/>
<path d="M334.259 26H306.741C305.78 26 305 25.2051 305 24.2247V8.77526C305 7.79494 305.78 7 306.741 7H334.259C335.22 7 336 7.79494 336 8.77526V24.2247C336 25.2058 335.22 26 334.259 26Z" fill="#DB9431"/>
<path d="M334 10L320.5 17L307 10" stroke="white" stroke-width="0.597045" stroke-miterlimit="10"/>
<path d="M317.782 334.947H173.768V165.794C173.768 165.794 182.314 162.349 193.073 158.025C203.451 153.833 215.91 148.834 224.689 145.331C230.288 143.103 234.407 141.491 235.552 141.08L257.818 140.479L316.508 173.254L316.581 181.932L317.782 334.947Z" fill="#ACD5D4"/>
<path opacity="0.3" d="M317.782 334.947H173.768V214.151C174.545 214.004 175.205 214.048 175.718 214.283C184.821 218.387 213.594 283.264 226.8 272.109C240.007 260.954 260.85 211.044 293.435 177.873C293.435 177.873 305.909 179.969 316.58 181.933L317.782 334.947Z" fill="#4A6C8F"/>
<path opacity="0.3" d="M217.683 265.732C221.406 287.514 220.732 316.932 219.618 334.947H190.947C188.31 295.59 187.165 204.359 193.072 158.025C203.45 153.833 215.909 148.834 224.689 145.331L224.85 145.61C220.35 155.621 212.01 232.473 217.683 265.732Z" fill="#4A6C8F"/>
<path d="M220.249 143.573C220.176 143.734 219.544 145.141 218.578 147.708C215.557 155.739 209.27 175.073 206.837 202.689C203.568 239.7 206.837 335.828 206.837 335.828H136.83C136.83 335.828 136.463 296.281 138.281 248.76C139.659 212.276 149.832 185.629 156.941 172.921C159.096 169.081 160.957 166.515 162.218 165.328C167.597 160.312 219.047 143.939 220.249 143.573Z" fill="#D6DD40"/>
<path opacity="0.7" d="M220.248 143.573C220.175 143.734 219.544 145.141 218.577 147.708C205.326 152.501 168.476 168.288 156.94 172.92C159.095 169.08 160.956 166.513 162.217 165.327C167.596 160.312 219.046 143.939 220.248 143.573Z" fill="white"/>
<path d="M338.113 336.032H245.622C245.622 336.032 245.945 315.423 246.575 291.266C247.161 268.619 248.055 242.851 249.199 228.046C251.061 204.139 260.852 164.606 265.015 148.556C266.188 144.085 266.906 141.432 266.906 141.432C270.028 141.945 309.898 163.302 327.369 176.919C331.239 179.939 333.994 182.577 335.035 184.526C335.548 185.493 335.988 187.502 336.369 190.345V190.36C340.282 219.398 338.113 336.032 338.113 336.032Z" fill="#D6DD40"/>
<path opacity="0.3" d="M338.113 336.032H245.622C245.622 336.032 245.93 316.273 246.531 292.762C256.088 292 282.209 298.992 287.984 258.448C293.422 220.396 312.227 189.014 336.252 189.511C336.296 189.775 336.325 190.053 336.369 190.346V190.361C340.282 219.398 338.113 336.032 338.113 336.032Z" fill="#4A6C8F"/>
<path opacity="0.7" d="M336.368 190.346C327.221 182.958 287.278 158.553 265.013 148.556C266.186 144.085 266.904 141.432 266.904 141.432C270.715 142.062 329.332 173.753 335.034 184.526C335.548 185.494 335.987 187.503 336.368 190.346Z" fill="white"/>
<path d="M257.816 218.504C249.358 252.613 253.287 337.439 253.287 337.439H239.699C239.699 337.439 236.679 275.861 245.738 222.418C249.769 198.643 254.738 181.126 258.139 168.506C258.139 168.491 258.155 168.477 258.155 168.447C261.717 155.181 263.535 147.354 260.706 143.426C260.647 143.353 260.589 143.279 260.53 143.206C260.149 142.708 259.665 142.282 259.108 141.916C258.962 141.813 258.8 141.711 258.624 141.623C248.671 136.185 231.008 141.564 231.008 141.564C231.008 141.564 227.329 143.044 223.311 150.828C220.614 156.061 217.757 164.123 215.762 176.494C210.633 208.346 213.109 337.937 213.109 337.937H198.188C198.188 337.937 200.019 197.015 205.296 171.188C208.755 154.214 213.475 145.214 220.848 139.541C223.545 137.474 226.594 135.833 230.068 134.425C231.329 133.897 232.648 133.414 234.04 132.945C241.823 129.705 262.535 126.935 269.718 139.395C269.997 139.879 270.26 140.377 270.495 140.905C276.828 155.094 266.259 184.38 257.816 218.504Z" fill="#DB9431"/>
<path opacity="0.7" d="M230.069 134.427C211.307 149.685 205.18 169.708 203.73 215.749C202.307 261.028 202.895 314.353 198.833 337.938H198.188C198.188 337.938 200.02 197.016 205.297 171.19C208.756 154.216 213.476 145.216 220.849 139.543C223.546 137.476 226.595 135.833 230.069 134.427Z" fill="white"/>
<path opacity="0.7" d="M245.739 222.418C249.77 198.643 254.739 181.126 258.14 168.506C255.238 184.937 250.782 205.151 249.169 219.941C246.281 246.692 240.154 309.545 242.089 334.039C242.177 335.182 242.265 336.311 242.353 337.44H239.7C239.7 337.44 236.68 275.861 245.739 222.418Z" fill="white"/>
<path d="M260.528 143.207C260.147 142.709 259.663 142.282 259.106 141.916C259.56 141.315 259.811 140.979 259.811 140.979C260.132 141.536 260.368 142.284 260.528 143.207Z" fill="#4A6C8F"/>
<path opacity="0.3" d="M269.718 139.395C266.61 140.201 263.547 141.667 260.703 143.426C260.175 142.693 259.486 142.092 258.622 141.623C248.669 136.185 231.006 141.564 231.006 141.564C231.006 141.564 227.327 143.044 223.31 150.828C222.079 148.366 220.76 144.51 220.848 139.541C224.527 136.712 228.866 134.704 234.04 132.945C241.824 129.706 262.536 126.936 269.718 139.395Z" fill="#AD6A31"/>
<path d="M260.718 91.6836V144.072C260.718 144.072 253.36 156.413 241.238 159.009C229.116 161.602 224.147 152.941 224.147 152.941C224.147 152.941 224.909 144.527 225.671 135.967C226.463 127.319 227.269 118.539 227.386 118.099L260.366 91.9638L260.718 91.6836Z" fill="#DC8865"/>
<path d="M244.492 130.439C237.016 134.999 230.538 136.126 225.671 135.965C226.463 127.318 227.269 118.538 227.386 118.098L260.366 91.9626C260.924 103.557 258.212 122.056 244.492 130.439Z" fill="#18203D"/>
<path d="M235.845 335.71C235.845 337.234 172.684 336.106 156.399 335.783C154.948 335.754 153.863 335.739 153.233 335.724C152.823 335.709 152.603 335.709 152.603 335.709C152.603 335.709 154.347 327.647 157.176 324.818C160.02 321.974 178.533 308.254 181.801 307.815C185.07 307.375 217.097 311.743 217.097 311.743C217.097 311.743 220.131 311.083 223.62 310.365C223.811 310.336 224.03 310.292 224.236 310.262C228.633 309.368 233.529 308.459 233.881 308.694C233.881 308.694 235.845 333.965 235.845 335.71Z" fill="#DC8865"/>
<path d="M235.845 335.71C235.845 337.234 172.684 336.106 156.399 335.783C160.65 332.426 180.057 325.127 187.474 323.72C195.536 322.196 224.955 324.38 224.955 324.38C224.955 324.38 224.765 316.538 224.237 310.264C228.634 309.37 233.53 308.461 233.882 308.696C233.882 308.696 235.845 333.965 235.845 335.71Z" fill="#D25C2C"/>
<path opacity="0.7" d="M217.097 311.744C217.097 311.744 220.131 311.084 223.62 310.366C222.594 311.641 220.63 313.972 220.146 314.133C219.501 314.353 187.473 310.439 184.205 311.304C180.936 312.183 164.373 321.77 160.664 326.123C158.641 328.512 155.622 332.353 153.232 335.724C152.822 335.709 152.602 335.709 152.602 335.709C152.602 335.709 154.346 327.647 157.175 324.818C160.019 321.974 178.532 308.254 181.8 307.815C185.07 307.376 217.097 311.744 217.097 311.744Z" fill="white"/>
<path d="M353.314 315.848C350.236 334.17 343.669 336.428 343.669 336.428H229.747L228.516 319.044L227.519 304.958L227.358 302.686L237.164 300.678L303.184 287.193C303.184 287.193 298.024 249.097 306.35 215.75C311.495 195.185 320.73 187.724 327.34 185.276C331.444 183.752 334.552 184.147 335.035 184.528C344.695 191.974 349.268 215.281 352.345 251.119C353.094 259.899 353.752 269.427 354.384 279.658C355.381 295.898 354.705 307.537 353.314 315.848Z" fill="#D6DD40"/>
<path d="M240.565 336.428H229.747L227.358 302.685L237.164 300.677L240.565 336.428Z" fill="#DB9431"/>
<path opacity="0.3" d="M343.669 336.428H229.747L228.516 319.044C251.896 317.901 309.384 316.45 311.202 316.684C313.415 316.963 304.562 300.619 304.841 297.863C305.105 295.166 326.769 312.052 328.03 313.034C326.916 311.905 309.385 294.199 312.874 292.601C316.465 290.93 335.052 304.43 341.296 301.66C345.122 299.945 350.501 275.349 352.348 251.119C353.096 259.899 353.755 269.427 354.386 279.658C357.565 331.664 343.669 336.428 343.669 336.428Z" fill="#4A6C8F"/>
<path opacity="0.7" d="M303.184 287.192L312.873 292.601C312.873 292.601 309.736 292.293 304.884 291.604C300.56 290.974 242.573 302.422 227.519 304.957L227.358 302.685L237.164 300.677L303.184 287.192Z" fill="white"/>
<path opacity="0.7" d="M353.314 315.848C353.798 277.283 344.607 197.294 334.361 188.25C332.514 186.623 330.11 185.656 327.34 185.274C331.444 183.75 334.552 184.145 335.035 184.526C344.695 191.972 349.268 215.279 352.346 251.117C353.094 259.897 353.753 269.425 354.384 279.656C355.381 295.898 354.706 307.537 353.314 315.848Z" fill="white"/>
<path d="M196.677 133.448C195.988 135.178 191.888 144.947 189.342 151.337C188.237 154.139 187.419 156.286 187.307 156.847C186.971 158.673 172.877 168.746 172.877 168.746L172.317 188.925L160.161 188.525L145.476 188.028L154.572 164.838C154.572 164.838 153.723 159.264 153.179 154.331C152.923 152.01 152.73 149.815 152.73 148.438C152.73 146.293 154.236 141.392 155.725 137.003C155.725 137.003 155.741 136.987 155.741 136.971C157.214 132.63 158.72 128.803 158.72 128.803C158.72 128.803 160.354 110.594 161.618 108.256C162.868 105.934 165.285 106.558 166.087 107.984C166.087 107.984 166.103 107.935 166.119 107.855C166.232 107.15 166.952 103.803 168.778 103.323C170.844 102.795 172.286 105.565 172.286 105.565C172.286 105.565 172.302 105.548 172.302 105.501C172.445 104.828 173.695 99.3993 176.225 99.6552C178.659 99.895 179.316 104.028 179.412 104.812C179.428 104.892 179.444 104.94 179.444 104.94C179.444 104.94 180.613 102.169 182.856 102.698C185.098 103.243 185.723 105.566 185.723 110.049C185.723 114.533 186.251 128.147 186.251 130.116C186.251 131.75 185.818 138.637 185.691 140.975C185.642 141.488 185.627 141.775 185.627 141.775C185.627 141.775 185.771 141.198 186.075 140.317C186.78 138.219 188.286 134.392 190.463 132.47C193.537 129.731 196.517 129.619 197.317 130.531C197.605 130.869 197.269 131.974 196.677 133.448Z" fill="#DC8865"/>
<path d="M189.342 151.337C188.237 154.139 187.42 156.286 187.307 156.847C186.971 158.673 172.877 168.746 172.877 168.746L172.317 188.926L160.161 188.525C161.043 180.773 161.955 168.538 161.955 168.538C161.955 168.538 157.294 168.698 154.572 164.838C154.572 164.838 153.723 159.265 153.179 154.332C155.052 156.638 157.102 157.471 159.008 158.543C162.211 160.337 166.695 158.159 166.695 158.159C166.695 158.159 170.154 160.465 170.923 160.465C171.692 160.465 183.463 155.982 187.179 153.051C187.82 152.538 188.573 151.961 189.342 151.337Z" fill="#D25C2C"/>
<path opacity="0.7" d="M166.087 107.983C166.087 107.983 164.053 106.638 163.076 108.576C162.115 110.514 160.049 129.3 160.049 129.3C160.049 129.3 157.775 133.288 155.741 136.972C157.214 132.632 158.72 128.804 158.72 128.804C158.72 128.804 160.354 110.595 161.618 108.257C162.869 105.934 165.287 106.558 166.087 107.983Z" fill="white"/>
<path opacity="0.7" d="M172.286 105.564C172.286 105.564 171.453 104.347 169.179 104.699C167.177 105.004 166.312 107.294 166.121 107.855C166.233 107.15 166.953 103.803 168.779 103.323C170.844 102.794 172.286 105.564 172.286 105.564Z" fill="white"/>
<path opacity="0.7" d="M179.412 104.812C179.22 104.268 178.371 102.041 176.369 101.801C174.271 101.561 172.557 104.988 172.301 105.501C172.444 104.828 173.694 99.3993 176.224 99.6552C178.659 99.8961 179.316 104.028 179.412 104.812Z" fill="white"/>
<path opacity="0.7" d="M186.251 130.116C186.251 131.75 185.818 138.637 185.691 140.975C185.546 141.216 185.466 141.343 185.466 141.343C185.466 141.343 185.594 108.031 183.832 105.405C182.071 102.762 179.444 104.94 179.444 104.94C179.444 104.94 180.613 102.169 182.856 102.699C185.098 103.243 185.723 105.566 185.723 110.05C185.722 114.533 186.251 128.147 186.251 130.116Z" fill="white"/>
<path opacity="0.7" d="M196.677 133.448C195.86 133.096 194.851 132.935 193.666 133.127C190.51 133.655 187.356 138.236 186.075 140.318C186.78 138.22 188.286 134.393 190.463 132.471C193.537 129.732 196.517 129.62 197.317 130.532C197.605 130.869 197.27 131.974 196.677 133.448Z" fill="white"/>
<path d="M165.918 150.656C165.918 150.656 173.888 144.323 181.641 143.667" stroke="#D25C2C" stroke-miterlimit="10" stroke-linecap="round" stroke-linejoin="round"/>
<path d="M171.268 156.551C171.268 156.551 174.652 147.38 183.059 145.524L185.025 143.231" stroke="#D25C2C" stroke-miterlimit="10" stroke-linecap="round" stroke-linejoin="round"/>
<path d="M160.896 132.203C160.896 132.203 171.814 131.658 182.078 131.22" stroke="#D25C2C" stroke-miterlimit="10" stroke-linecap="round" stroke-linejoin="round"/>
<path d="M179.13 106.871L177.82 129.036" stroke="#D25C2C" stroke-miterlimit="10" stroke-linecap="round" stroke-linejoin="round"/>
<path d="M172.36 108.51L171.159 129.036" stroke="#D25C2C" stroke-miterlimit="10" stroke-linecap="round" stroke-linejoin="round"/>
<path d="M166.136 110.366L164.936 128.708" stroke="#D25C2C" stroke-miterlimit="10" stroke-linecap="round" stroke-linejoin="round"/>
<path d="M176.363 180.481C176.363 180.481 176.26 183.471 176.114 188.499C175.498 208.302 174.003 259.605 174.003 283.424C174.003 313.282 168.506 329.391 146.9 331.356C130.82 332.822 124.957 323.617 122.7 309.428C122.407 307.713 122.187 305.91 122.011 304.049C121.674 300.648 121.483 297.013 121.351 293.246C120.706 274.352 136.8 208.743 142.312 186.873C143.455 182.358 144.144 179.705 144.144 179.705L149.89 179.837L164.724 180.203L176.363 180.481Z" fill="#D6DD40"/>
<path d="M176.363 180.481C176.363 180.481 176.26 183.471 176.114 188.499L163.083 187.869L147.868 187.136L142.313 186.872C143.456 182.357 144.145 179.704 144.145 179.704L149.891 179.836L164.725 180.202L176.363 180.481Z" fill="#DB9431"/>
<path opacity="0.3" d="M176.363 180.481C176.363 180.481 176.26 183.471 176.114 188.499C175.498 208.302 174.003 259.605 174.003 283.424C174.003 313.282 168.506 329.391 146.9 331.356C130.82 332.822 124.957 323.617 122.7 309.428C122.407 307.713 122.187 305.91 122.011 304.049C122.319 304.313 122.627 304.562 122.935 304.782C156.384 330.756 159.067 272.373 158.686 268.885C158.29 265.352 150.434 270.453 148.074 266.525C146.315 263.593 157.059 215.883 163.084 187.871C163.685 185.101 164.242 182.521 164.726 180.205L176.363 180.481Z" fill="#4A6C8F"/>
<path opacity="0.7" d="M149.89 179.837C149.392 181.64 148.703 184.102 147.867 187.137C141.168 211.557 125.206 272.241 122.934 304.782C122.817 306.409 122.729 307.963 122.7 309.429C122.407 307.714 122.187 305.911 122.011 304.05C121.674 300.649 121.483 297.014 121.351 293.247C120.706 274.353 136.8 208.745 142.312 186.875C143.455 182.36 144.144 179.707 144.144 179.707L149.89 179.837Z" fill="white"/>
<path d="M210.864 70.822H216.149V72.1989C220.896 74.7836 224.221 80.7391 224.221 87.6779C224.221 94.6166 220.896 100.571 216.149 103.157V104.534H210.864C203.488 104.534 197.508 96.987 197.508 87.6779C197.509 78.3687 203.489 70.822 210.864 70.822Z" fill="#18203D"/>
<path d="M216.15 104.534C223.527 104.534 229.507 96.9871 229.507 87.6779C229.507 78.3686 223.527 70.822 216.15 70.822C208.774 70.822 202.794 78.3686 202.794 87.6779C202.794 96.9871 208.774 104.534 216.15 104.534Z" fill="#DB9431"/>
<path d="M216.15 98.9453C221.081 98.9453 225.079 93.9008 225.079 87.678C225.079 81.4552 221.081 76.4106 216.15 76.4106C211.219 76.4106 207.222 81.4552 207.222 87.678C207.222 93.9008 211.219 98.9453 216.15 98.9453Z" fill="#18203D"/>
<path d="M209.476 49.6424C206.399 54.4909 208.334 61.857 208.334 61.857L210.292 64.1208L225.799 45.594L209.476 49.6424Z" fill="#18203D"/>
<path d="M263.943 69.4765C263.503 86.6114 261.788 120.031 233.733 123.886C232.912 124.003 232.121 124.077 231.358 124.135C224.806 124.589 220.086 122.962 216.7 119.943C206.835 111.251 208.198 90.9354 208.667 76.5415C209.019 65.4745 211.569 56.3726 217.872 50.4946C222.108 46.5365 228.03 44.0156 236.151 43.3266C237.69 43.1945 239.317 43.1216 241.017 43.1216C248.45 43.1366 264.368 52.3416 263.943 69.4765Z" fill="#DC8865"/>
<path d="M263.943 69.4765C263.503 86.6114 261.788 120.031 233.733 123.886C232.912 124.003 232.122 124.077 231.358 124.135C236.518 119.855 241.34 113.699 242.102 105.329C243.817 86.4794 245.327 53.4695 236.151 43.3266C237.69 43.1945 239.317 43.1216 241.017 43.1216C248.45 43.1366 264.368 52.3416 263.943 69.4765Z" fill="#D25C2C"/>
<path opacity="0.7" d="M213.974 107.279C215 112.629 215.925 116.777 216.7 119.944C206.835 111.252 208.198 90.9364 208.667 76.5425C209.019 65.4755 211.569 56.3736 217.872 50.4956C211.469 68.9784 211.482 94.3224 213.974 107.279Z" fill="white"/>
<path d="M284.202 60.6235C282.047 74.0505 269.647 90.3644 269.647 90.3644L256.294 90.9214L255.195 79.8405C255.195 79.8405 249.332 75.6334 249.522 67.0735C249.727 58.7625 254.755 53.8665 255.063 53.5736C254.579 53.8086 242.706 59.6716 230.921 53.0895C218.902 46.3766 213.287 49.4395 210.414 53.7496C207.761 57.7076 210.297 64.1276 210.297 64.1276C210.297 64.1276 204.771 63.2625 203.994 55.9046C203.979 55.9046 203.994 55.8896 203.994 55.8896C203.833 54.3066 203.891 52.4596 204.258 50.2316C204.991 45.7906 207.072 43.2836 209.447 41.9055C209.462 41.9055 209.462 41.9055 209.476 41.9055C213.844 39.3846 219.253 40.6746 219.253 40.6746C219.253 40.6746 222.36 30.4286 241.87 34.3716C241.87 34.3716 252.248 29.6076 260.105 32.9646C267.976 36.3356 268.255 42.5065 268.255 42.5065C268.255 42.5065 279.336 38.4906 283.837 52.1515C284.116 53.0015 284.306 53.8955 284.394 54.8195C284.394 54.8346 284.409 54.8346 284.409 54.8485C284.627 56.6654 284.539 58.6155 284.202 60.6235Z" fill="#82435C"/>
<path d="M284.202 60.6236C282.047 74.0506 269.647 90.3645 269.647 90.3645L256.294 90.9215L255.195 79.8406C255.195 79.8406 249.332 75.6336 249.522 67.0736C249.727 58.7626 254.755 53.8666 255.063 53.5737C254.579 53.8087 242.706 59.6717 230.921 53.0896C218.902 46.3767 213.287 49.4396 210.414 53.7497C207.761 57.7077 210.297 64.1277 210.297 64.1277C210.297 64.1277 204.771 63.2627 203.994 55.9047C205.152 57.6197 206.588 56.8427 207.805 53.4717C210.194 46.8028 212.246 43.6068 218.725 44.3988C225.013 45.1758 231.536 50.3799 231.946 50.7018C231.785 50.3648 229 45.0288 225.218 42.4487C225.218 42.4487 235.698 43.6067 240.316 49.3817C244.933 55.1566 243.336 44.6767 238.454 41.3788C238.454 41.3788 247.146 38.7258 254.255 45.3808C261.159 51.8598 268.972 45.4978 269.426 45.1318C269.074 45.4688 262.918 51.5379 264.384 61.4608C265.586 69.6235 278.661 68.7006 284.202 60.6236Z" fill="#4B1C4A"/>
<path opacity="0.7" d="M284.391 54.8197C283.731 52.9727 281.694 48.4577 276.813 45.7167C270.834 42.3597 264.868 45.8487 264.355 46.1706L266.7 44.2947C266.508 39.9556 262.536 34.2838 255.632 33.6237C248.728 32.9497 243.247 37.3027 243.247 37.3027C243.247 37.3027 239.464 35.5147 232.195 35.4117C224.91 35.3236 220.747 41.2746 220.747 41.2746L223.664 44.0885C223.239 43.9276 215.368 40.8056 209.475 41.9045C213.843 39.3836 219.252 40.6736 219.252 40.6736C219.252 40.6736 222.358 30.4276 241.868 34.3706C241.868 34.3706 252.246 29.6066 260.104 32.9636C267.974 36.3346 268.254 42.5055 268.254 42.5055C268.254 42.5055 279.334 38.4896 283.836 52.1505C284.113 53.0017 284.303 53.8956 284.391 54.8197Z" fill="white"/>
<path d="M272.109 71.3316H262.458C262.458 71.3316 255.262 37.9545 233.461 32.967H240.986C248.197 32.967 255.496 36.7989 260.281 43.3346C264.534 49.1443 269.051 58.0042 272.109 71.3316Z" fill="#DB9431"/>
<path d="M234.383 111.547H238.878C240.066 111.547 241.028 110.584 241.028 109.396V108.253C241.028 107.065 240.064 106.103 238.878 106.103H234.383C233.195 106.103 232.233 107.065 232.233 108.253V109.396C232.233 110.584 233.196 111.547 234.383 111.547Z" fill="#18203D"/>
<path d="M260.858 103.459L256.979 107.591C255.461 109.209 253.341 110.126 251.123 110.126H239.07C238.405 110.126 237.867 109.587 237.867 108.921C237.867 108.257 238.405 107.718 239.07 107.718H251.123C252.678 107.718 254.162 107.075 255.225 105.943L259.103 101.811C259.558 101.326 260.32 101.303 260.804 101.758C261.288 102.213 261.313 102.974 260.858 103.459Z" fill="#18203D"/>
<path d="M264.36 70.822H269.645V72.1989C274.392 74.7836 277.717 80.7391 277.717 87.6779C277.717 94.6166 274.392 100.571 269.645 103.157V104.534H264.36C256.984 104.534 251.004 96.987 251.004 87.6779C251.004 78.3687 256.984 70.822 264.36 70.822Z" fill="#18203D"/>
<path d="M269.645 104.534C277.022 104.534 283.002 96.9871 283.002 87.6779C283.002 78.3686 277.022 70.822 269.645 70.822C262.269 70.822 256.289 78.3686 256.289 87.6779C256.289 96.9871 262.269 104.534 269.645 104.534Z" fill="#DB9431"/>
<path d="M269.645 98.9453C274.576 98.9453 278.574 93.9008 278.574 87.678C278.574 81.4552 274.576 76.4106 269.645 76.4106C264.715 76.4106 260.717 81.4552 260.717 87.678C260.717 93.9008 264.715 98.9453 269.645 98.9453Z" fill="#18203D"/>
<path d="M202.75 337.732H63.4729C60.8709 337.732 58.7622 335.623 58.7622 333.021V330.516C58.7622 327.914 60.8709 325.806 63.4729 325.806H202.75C205.352 325.806 207.461 327.914 207.461 330.516V333.021C207.461 335.623 205.351 337.732 202.75 337.732Z" fill="#CA404E"/>
<path d="M202.75 337.732H162.508C159.906 337.732 157.797 335.623 157.797 333.021V330.516C157.797 327.914 159.906 325.806 162.508 325.806H202.75C205.352 325.806 207.461 327.914 207.461 330.516V333.021C207.461 335.623 205.351 337.732 202.75 337.732Z" fill="#18203D"/>
<path d="M192.332 315.848H67.6741C64.4398 315.848 61.8169 313.225 61.8169 309.991V205.163C61.8169 201.927 64.4398 199.306 67.6741 199.306H192.332C195.567 199.306 198.189 201.929 198.189 205.163V309.991C198.188 313.225 195.566 315.848 192.332 315.848Z" fill="#18203D"/>
<path d="M191.754 206.719V308.431C191.754 309.12 191.651 309.809 191.475 310.439C190.596 313.561 187.737 315.848 184.337 315.848H62.793C58.689 315.848 55.376 312.535 55.376 308.431V206.719C55.376 204.11 56.7251 201.823 58.762 200.489C59.92 199.741 61.298 199.302 62.793 199.302H184.337C188.426 199.302 191.754 202.63 191.754 206.719Z" fill="#CA404E"/>
<path opacity="0.3" d="M191.754 291.721V308.431C191.754 309.12 191.651 309.809 191.475 310.439C190.596 313.561 187.737 315.848 184.337 315.848H62.793C58.689 315.848 55.376 312.535 55.376 308.431V214.928C68.407 242.808 103.337 289.054 190.318 291.677C190.801 291.706 191.27 291.721 191.754 291.721Z" fill="#4A6C8F"/>
<path opacity="0.7" d="M191.754 206.719V308.431C191.754 309.12 191.65 309.809 191.474 310.439C191.182 307.229 190.785 300.398 190.316 291.677C188.91 265.439 186.99 222.125 186.417 209.226C186.314 207.101 184.615 205.415 182.503 205.327L58.7607 200.49C59.9187 199.742 61.2968 199.303 62.7917 199.303H184.335C188.425 199.302 191.754 202.63 191.754 206.719Z" fill="white"/>
<path d="M146.372 333.546V337.733H98.7925V330.718C98.7925 329.423 99.2835 328.17 100.199 327.254C111.099 316.341 112.382 292.378 112.397 281.954C112.401 279.188 114.634 276.947 117.4 276.947H129.043C131.804 276.947 134.05 279.178 134.047 281.938C134.033 292.784 132.645 318.348 120.444 328.543H141.37C144.132 328.542 146.372 330.782 146.372 333.546Z" fill="#18203D"/>
<path d="M113.294 332.729V330.713C113.294 329.419 113.785 328.166 114.701 327.25C125.599 316.336 126.878 292.352 126.892 281.938C126.895 279.178 124.647 276.947 121.888 276.947H110.245C107.479 276.947 105.246 279.188 105.243 281.954C105.228 292.378 103.945 316.341 93.0525 327.25C92.1377 328.166 91.6455 329.419 91.6455 330.713V332.729C91.6455 335.492 93.8851 337.733 96.6492 337.733H108.292C111.055 337.733 113.294 335.492 113.294 332.729Z" fill="#CA404E"/>
<path d="M414.451 347.722H5.20458C2.71951 347.722 0.70459 345.707 0.70459 343.222V340.83C0.70459 338.345 2.71951 336.33 5.20458 336.33H414.452C416.937 336.33 418.952 338.345 418.952 340.83V343.222C418.952 345.707 416.937 347.722 414.451 347.722Z" fill="#DB9431"/>
<path d="M414.451 347.722H235.432C232.947 347.722 230.932 345.707 230.932 343.222V340.83C230.932 338.345 232.947 336.33 235.432 336.33H414.451C416.936 336.33 418.951 338.345 418.951 340.83V343.222C418.952 345.707 416.937 347.722 414.451 347.722Z" fill="#18203D"/>
<path d="M349.234 305.459H339.824L337.244 324.837H349.234C353.324 324.837 356.651 321.524 356.651 317.42V312.876C356.651 308.788 353.322 305.459 349.234 305.459ZM352.149 316.513C352.149 318.976 350.157 320.969 347.709 320.969H340.512L342.066 309.331H347.709C350.157 309.331 352.149 311.324 352.149 313.787V316.513Z" fill="#DB9431"/>
<path d="M346.258 301.781C345.98 308.874 344.499 325.702 337.038 336.329H301.258C298.414 332.27 296.435 327.285 295.072 322.301C291.803 310.428 291.964 298.454 291.964 298.454H346.329C346.329 298.454 346.346 299.7 346.258 301.781Z" fill="#DB9431"/>
<path opacity="0.3" d="M346.258 301.781C345.98 308.874 344.499 325.702 337.038 336.329H301.258C298.414 332.269 296.435 327.285 295.072 322.301C318.862 331.36 340.072 313.946 346.258 301.781Z" fill="#DB9431"/>
<path d="M406.345 249.067L403.978 248.73C403.227 248.624 402.703 247.927 402.81 247.175L404.702 233.874C404.808 233.123 405.505 232.599 406.257 232.706L408.624 233.043C409.376 233.149 409.899 233.847 409.792 234.598L407.9 247.899C407.794 248.652 407.098 249.175 406.345 249.067Z" fill="#CA404E"/>
<path d="M396.645 328.679L391.088 327.888C390.019 327.736 389.277 326.746 389.429 325.678L400.791 245.816C400.943 244.747 401.933 244.004 403.001 244.156L408.558 244.947C409.627 245.099 410.369 246.089 410.217 247.157L398.855 327.019C398.703 328.088 397.714 328.831 396.645 328.679Z" fill="#D6DD40"/>
<path d="M412.428 247.999C413.435 248.142 414.135 249.074 413.991 250.081L410.881 271.941L408.834 271.651L411.619 252.075L409.559 251.782L410.143 247.674L412.428 247.999Z" fill="#CA404E"/>
<path d="M386.055 245.202L376.708 320.007L386.525 321.234L395.873 246.429L386.055 245.202Z" fill="#6DA1A4"/>
<path d="M395.872 246.435L386.058 245.209L387.008 237.611C387.167 236.332 388.335 235.424 389.614 235.583L394.795 236.231C396.075 236.391 396.983 237.558 396.823 238.837L395.872 246.435Z" fill="#CA404E"/>
<path d="M386.454 242.016L385.214 251.936L395.032 253.163L396.271 243.243L386.454 242.016Z" fill="#DB9431"/>
<path d="M386.455 242.02L386.204 244.027L396.022 245.254L396.273 243.246L386.455 242.02Z" fill="#E9B469"/>
<path opacity="0.3" d="M393.47 242.894L383.724 320.885L386.525 321.235L396.271 243.244L393.47 242.894Z" fill="#4A6C8F"/>
<path opacity="0.7" d="M386.461 242.018L376.715 320.009L379.132 320.311L388.878 242.32L386.461 242.018Z" fill="white"/>
<path d="M381.786 247.409L379.404 247.612C378.647 247.675 377.982 247.115 377.917 246.357L376.781 232.971C376.718 232.214 377.278 231.549 378.035 231.484L380.417 231.281C381.175 231.217 381.841 231.778 381.904 232.536L383.04 245.922C383.104 246.679 382.542 247.345 381.786 247.409Z" fill="#D6DD40"/>
<path d="M390.175 327.17L384.582 327.644C383.507 327.736 382.561 326.938 382.469 325.863L375.645 245.485C375.554 244.411 376.352 243.465 377.426 243.373L383.019 242.899C384.095 242.807 385.04 243.605 385.132 244.681L391.956 325.057C392.047 326.132 391.249 327.078 390.175 327.17Z" fill="#CA404E"/>
<path d="M387.473 245.004C388.486 244.918 389.378 245.67 389.464 246.683L391.331 268.684L389.272 268.859L387.599 249.156L385.525 249.332L385.174 245.199L387.473 245.004Z" fill="#D6DD40"/>
<path d="M370.961 247.197L361.118 248.202L368.77 323.195L378.612 322.191L370.961 247.197Z" fill="#6DA1A4"/>
<path d="M370.989 247.191L361.15 248.195L360.373 240.578C360.242 239.295 361.175 238.15 362.458 238.019L367.652 237.488C368.935 237.357 370.08 238.291 370.211 239.574L370.989 247.191Z" fill="#CA404E"/>
<path d="M370.634 244.005L360.791 245.009L361.806 254.954L371.648 253.95L370.634 244.005Z" fill="#DB9431"/>
<path d="M370.663 243.972L360.821 244.977L361.026 246.989L370.869 245.984L370.663 243.972Z" fill="#E9B469"/>
<path opacity="0.3" d="M370.635 244.003L367.827 244.29L375.804 322.477L378.613 322.191L370.635 244.003Z" fill="#4A6C8F"/>
<path opacity="0.7" d="M363.222 244.76L360.799 245.007L368.777 323.194L371.199 322.947L363.222 244.76Z" fill="white"/>
<path d="M406.948 278.514L406.127 289.127L402.477 336.428H366.858L365.716 321.609L363.195 289.127L362.374 278.514H406.948Z" fill="#CA404E"/>
<path d="M406.948 278.514L406.127 289.127H363.195L362.374 278.514H406.948Z" fill="#DB9431"/>
<path opacity="0.3" d="M406.948 278.514L406.127 289.126L402.477 336.427H366.858L365.715 321.608C391.528 321.579 400.733 290.298 403.283 278.513H406.948V278.514Z" fill="#4A6C8F"/>
</svg>
